<svg width="161" height="155" viewBox="0 0 161 155" fill="none" xmlns="http://www.w3.org/2000/svg">
<path d="M134.995 150.857H26.0052C14.1539 150.857 4.5459 141.249 4.5459 129.398V47.3007C4.5459 35.4494 14.1539 25.8414 26.0052 25.8414H134.995C146.846 25.8414 156.454 35.4494 156.454 47.3007V129.398C156.454 141.249 146.846 150.857 134.995 150.857V150.857Z" fill="#F4F5F7"/>
<path d="M134.995 25.8414H114.617C126.468 25.8414 136.076 35.4494 136.076 47.3007V129.398C136.076 141.249 126.468 150.857 114.617 150.857H134.995C146.846 150.857 156.454 141.249 156.454 129.398V47.3007C156.454 35.4494 146.846 25.8414 134.995 25.8414V25.8414Z" fill="#D0D0D0"/>
<path d="M120.197 25.8415H40.8027V13.9985C40.8027 8.89366 44.9399 4.75439 50.0448 4.75439H110.953C116.058 4.75439 120.197 8.89366 120.197 13.9985V25.8415Z" fill="#F4F5F7"/>
<path d="M110.955 4.75439H94.7227C99.8275 4.75439 103.965 8.89366 103.965 13.9964V25.8415H120.197V13.9964C120.197 8.89366 116.06 4.75439 110.955 4.75439Z" fill="#D0D0D0"/>
<path d="M33.0556 85.3291C34.6063 86.8798 37.1184 86.8778 38.669 85.3291L46.4472 77.5489L54.2275 85.3291C55.7781 86.8798 58.2902 86.8778 59.8409 85.3291C61.3916 83.7785 61.3916 81.2643 59.8409 79.7136L52.0627 71.9354L59.8409 64.1572C61.3916 62.6065 61.3916 60.0924 59.8409 58.5417C58.2902 56.9931 55.7761 56.9931 54.2275 58.5417L46.4472 66.322L38.669 58.5417C37.1184 56.9931 34.6042 56.9931 33.0556 58.5417C31.5049 60.0924 31.5049 62.6065 33.0556 64.1572L40.8338 71.9354L33.0556 79.7136C31.5049 81.2643 31.5049 83.7785 33.0556 85.3291V85.3291Z" fill="#414141"/>
<path d="M101.159 85.3291C102.71 86.8798 105.222 86.8778 106.773 85.3291L114.551 77.5489L122.331 85.3291C123.882 86.8798 126.394 86.8778 127.944 85.3291C129.495 83.7785 129.495 81.2643 127.944 79.7136L120.166 71.9354L127.944 64.1572C129.495 62.6065 129.495 60.0924 127.944 58.5417C126.394 56.9931 123.88 56.9931 122.331 58.5417L114.551 66.322L106.773 58.5417C105.222 56.9931 102.708 56.9931 101.159 58.5417C99.6084 60.0924 99.6084 62.6065 101.159 64.1572L108.937 71.9354L101.159 79.7136C99.6084 81.2643 99.6084 83.7785 101.159 85.3291V85.3291Z" fill="#414141"/>
<path d="M44.2451 117.896H116.755C118.946 117.896 120.724 116.12 120.724 113.926C120.724 111.734 118.946 109.956 116.755 109.956H44.2451C42.0535 109.956 40.2754 111.734 40.2754 113.926C40.2754 116.12 42.0535 117.896 44.2451 117.896V117.896Z" fill="#414141"/>
<path d="M134.995 21.8718H124.167V13.9985C124.167 6.71238 118.239 0.784668 110.955 0.784668H50.0448C42.7607 0.784668 36.833 6.71238 36.833 13.9985V21.8718H26.0052C11.9829 21.8718 0.576172 33.2806 0.576172 47.3008V129.398C0.576172 143.418 11.9829 154.827 26.0052 154.827H96.5567C98.7483 154.827 100.526 153.048 100.526 150.857C100.526 148.663 98.7483 146.887 96.5567 146.887H26.0052C16.362 146.887 8.51562 139.041 8.51562 129.398V47.3008C8.51562 37.6576 16.362 29.8112 26.0052 29.8112H134.995C144.638 29.8112 152.484 37.6576 152.484 47.3008V129.398C152.484 139.041 144.638 146.887 134.995 146.887H111.375C109.183 146.887 107.405 148.663 107.405 150.857C107.405 153.048 109.183 154.827 111.375 154.827H134.995C149.017 154.827 160.424 143.418 160.424 129.398V47.3008C160.424 33.2806 149.017 21.8718 134.995 21.8718V21.8718ZM44.7725 21.8718V13.9985C44.7725 11.0894 47.1378 8.72412 50.0448 8.72412H110.953C113.862 8.72412 116.228 11.0894 116.228 13.9985V21.8718H44.7725Z" fill="#414141"/>
</svg>
