<svg width="270" height="96" viewBox="0 0 270 96" fill="none" xmlns="http://www.w3.org/2000/svg">
<rect width="270" height="96" rx="7" fill="#F4F5F7"/>
<path d="M113.799 26H114.896V23.2479H116.388C116.413 23.2479 116.434 23.2479 116.459 23.2479L117.936 26H119.186L117.574 23.0561C118.465 22.7259 118.909 21.9837 118.909 21.0071C118.909 19.6683 118.078 18.7273 116.391 18.7273H113.799V26ZM114.896 22.3033V19.6683H116.274C117.357 19.6683 117.805 20.1832 117.805 21.0071C117.805 21.8274 117.357 22.3033 116.288 22.3033H114.896ZM127.562 22.3636C127.562 20.0376 126.17 18.6278 124.288 18.6278C122.398 18.6278 121.01 20.0376 121.01 22.3636C121.01 24.6861 122.398 26.0994 124.288 26.0994C126.17 26.0994 127.562 24.6896 127.562 22.3636ZM126.475 22.3636C126.475 24.1357 125.538 25.098 124.288 25.098C123.034 25.098 122.1 24.1357 122.1 22.3636C122.1 20.5916 123.034 19.6293 124.288 19.6293C125.538 19.6293 126.475 20.5916 126.475 22.3636ZM130.183 26L130.85 24.0753H133.691L134.355 26H135.52L132.903 18.7273H131.635L129.018 26H130.183ZM131.17 23.152L132.243 20.0483H132.299L133.372 23.152H131.17ZM139.925 26C142.141 26 143.423 24.6257 143.423 22.353C143.423 20.0909 142.141 18.7273 139.999 18.7273H137.57V26H139.925ZM138.668 25.0412V19.6861H139.932C141.523 19.6861 142.343 20.6378 142.343 22.353C142.343 24.0753 141.523 25.0412 139.865 25.0412H138.668ZM149.434 18.7273V26H150.478V20.7337H150.545L152.69 25.9893H153.557L155.702 20.7372H155.769V26H156.813V18.7273H155.481L153.166 24.3807H153.081L150.765 18.7273H149.434ZM160.023 26L160.69 24.0753H163.531L164.195 26H165.36L162.743 18.7273H161.475L158.858 26H160.023ZM161.01 23.152L162.082 20.0483H162.139L163.212 23.152H161.01ZM167.41 26H168.508V23.4432H169.999C171.686 23.4432 172.52 22.424 172.52 21.0817C172.52 19.7429 171.693 18.7273 170.003 18.7273H167.41V26ZM168.508 22.5128V19.6683H169.885C170.972 19.6683 171.416 20.2578 171.416 21.0817C171.416 21.9055 170.972 22.5128 169.9 22.5128H168.508Z" fill="#6F6F6F"/>
<rect x="14" y="40" width="56" height="56" fill="#FAFAFA"/>
<rect x="76" y="40" width="57" height="56" fill="#FAFAFA"/>
<rect x="139" y="40" width="57" height="56" fill="#FAFAFA"/>
<rect x="202" y="30" width="56" height="56" fill="#FAFAFA"/>
<rect x="14" y="42" width="56" height="12" rx="2" fill="#3E64B1" fill-opacity="0.5"/>
<rect x="76" y="42" width="57" height="12" rx="2" fill="#3E64B1" fill-opacity="0.5"/>
<rect x="202" y="32" width="56" height="12" rx="2" fill="#029AF1" fill-opacity="0.5"/>
<rect x="138" y="74" width="120" height="12" rx="2" fill="#029AF1" fill-opacity="0.5"/>
<rect x="76" y="59" width="120" height="12" rx="2" fill="#23D7FF" fill-opacity="0.5"/>
</svg>
