<svg width="270" height="96" viewBox="0 0 270 96" fill="none" xmlns="http://www.w3.org/2000/svg">
<rect width="270" height="96" rx="7" fill="#F4F5F7"/>
<path d="M116.44 19.6719H118.706V26H119.8V19.6719H122.069V18.7273H116.44V19.6719ZM124.058 26L124.725 24.0753H127.566L128.23 26H129.395L126.778 18.7273H125.51L122.893 26H124.058ZM125.045 23.152L126.118 20.0483H126.174L127.247 23.152H125.045ZM131.445 26H134.233C135.923 26 136.687 25.1584 136.687 24.0433C136.687 22.9176 135.899 22.282 135.178 22.2429V22.1719C135.845 22.0014 136.403 21.5469 136.403 20.6378C136.403 19.5618 135.657 18.7273 134.109 18.7273H131.445V26ZM132.543 25.0589V22.7294H134.166C135.046 22.7294 135.597 23.2976 135.597 23.9901C135.597 24.6009 135.181 25.0589 134.127 25.0589H132.543ZM132.543 21.8736V19.6612H134.041C134.911 19.6612 135.327 20.1193 135.327 20.723C135.327 21.4261 134.752 21.8736 134.013 21.8736H132.543ZM138.988 26H143.381V25.0554H140.086V18.7273H138.988V26ZM145.633 26H150.235V25.0554H146.73V22.8288H149.955V21.8878H146.73V19.6719H150.193V18.7273H145.633V26Z" fill="#6F6F6F"/>
<rect x="14" y="40" width="46" height="11" rx="1" fill="#9F8DBD" fill-opacity="0.5"/>
<rect x="63" y="40" width="46" height="11" rx="1" fill="#9F8DBD" fill-opacity="0.5"/>
<rect x="112" y="40" width="46" height="11" rx="1" fill="#9F8DBD" fill-opacity="0.5"/>
<rect x="161" y="40" width="46" height="11" rx="1" fill="#9F8DBD" fill-opacity="0.5"/>
<rect x="210" y="40" width="46" height="11" rx="1" fill="#9F8DBD" fill-opacity="0.5"/>
<rect x="14" y="54" width="46" height="11" rx="1" fill="#9F8DBD" fill-opacity="0.5"/>
<rect x="63" y="54" width="46" height="11" rx="1" fill="#9F8DBD" fill-opacity="0.5"/>
<rect x="112" y="54" width="46" height="11" rx="1" fill="#9F8DBD" fill-opacity="0.5"/>
<rect x="161" y="54" width="46" height="11" rx="1" fill="#9F8DBD" fill-opacity="0.5"/>
<rect x="210" y="54" width="46" height="11" rx="1" fill="#9F8DBD" fill-opacity="0.5"/>
<rect x="14" y="68" width="46" height="11" rx="1" fill="#9F8DBD" fill-opacity="0.5"/>
<rect x="63" y="68" width="46" height="11" rx="1" fill="#9F8DBD" fill-opacity="0.5"/>
<rect x="112" y="68" width="46" height="11" rx="1" fill="#9F8DBD" fill-opacity="0.5"/>
<rect x="161" y="68" width="46" height="11" rx="1" fill="#9F8DBD" fill-opacity="0.5"/>
<rect x="210" y="68" width="46" height="11" rx="1" fill="#9F8DBD" fill-opacity="0.5"/>
</svg>
